# xmcd
#
# Track frame offsets:
#	150
#	49343
#	70102
#	93412
#	109246
#	136385
#	158392
#	191175
#	213715
#	239853
#	267797
#	327181
#
# Disc length: 4566 seconds
#
# Revision: 1
# Processed by: cddbd v1.4b41PL1 Copyright (c) Steve Scherf et al.
# Submitted via: audiograbber 1.80
#
DISCID=b511d40c
DTITLE=B.B. King - The Thrill Is Gone
DYEAR=1900
DGENRE=
TTITLE0=B.B. King Blues Theme
TTITLE1=Why I Sing The Blues
TTITLE2=You Know I Love You
TTITLE3=Caledonia
TTITLE4=Sweet Little Angel
TTITLE5=Every Day I Have The Blues
TTITLE6=All Over Again
TTITLE7=The Thrill Is Gone
TTITLE8=Guess Who
TTITLE9=Payin' The Cost To Be The Boss
TTITLE10=King/Brubeck Jam (long version)
TTITLE11=King/Brubeck Jam (short version)
EXTD=
EXTT0=
EXTT1=
EXTT2=
EXTT3=
EXTT4=
EXTT5=
EXTT6=
EXTT7=
EXTT8=
EXTT9=
EXTT10=
EXTT11=
PLAYORDER=
